<svg xmlns="http://www.w3.org/2000/svg" xmlns:xlink="http://www.w3.org/1999/xlink" version="1.1" width="256" height="256" viewBox="0 0 256 256" xml:space="preserve">

<defs>
</defs>
<g style="stroke: none; stroke-width: 0; stroke-dasharray: none; stroke-linecap: butt; stroke-linejoin: miter; stroke-miterlimit: 10; fill: none; fill-rule: nonzero; opacity: 1;" transform="translate(1.4065934065934016 1.4065934065934016) scale(2.81 2.81)" >
	<path d="M 54.686 49 l 0.051 2.239 c 0 3.134 2.43 5.82 5.776 6.383 l 8.643 1.456 c 4.553 0.767 7.861 4.423 7.861 8.688 v 18.581 c 0 1.465 -1.289 2.653 -2.879 2.653 H 45 H 15.861 c -1.59 0 -2.879 -1.188 -2.879 -2.653 V 67.766 c 0 -4.265 3.308 -7.921 7.861 -8.688 l 8.643 -1.456 c 3.345 -0.563 5.776 -3.25 5.776 -6.383 L 35.317 49 H 54.686 z" style="stroke: none; stroke-width: 1; stroke-dasharray: none; stroke-linecap: butt; stroke-linejoin: miter; stroke-miterlimit: 10; fill: rgb(232,187,137); fill-rule: nonzero; opacity: 1;" transform=" matrix(1 0 0 1 0 0) " stroke-linecap="round" />
	<path d="M 52.217 11.909 c -10.471 0.744 -19.582 3.106 -24.552 10.397 l 0.852 13.016 c 0.201 2.404 0.815 4.707 1.78 6.828 c 0.521 1.146 1.145 2.24 1.862 3.267 c 0.716 1.027 1.526 1.989 2.417 2.871 c 0.244 0.241 0.514 0.455 0.77 0.685 l -0.031 0.03 c 0.241 0.216 0.503 0.409 0.755 0.614 c 0.092 0.075 0.183 0.151 0.276 0.224 c 0.486 0.381 0.99 0.739 1.511 1.077 c 0.087 0.057 0.171 0.117 0.259 0.173 c 0.585 0.367 1.188 0.707 1.813 1.016 c 0.027 0.013 0.052 0.029 0.078 0.042 c 0.666 0.326 1.349 0.626 2.056 0.882 c 0.952 0.344 1.95 0.515 2.947 0.514 c 0.997 0.001 1.995 -0.17 2.947 -0.514 h 0 c 0.708 -0.256 1.391 -0.556 2.057 -0.882 c 0.026 -0.013 0.051 -0.028 0.077 -0.041 c 0.625 -0.309 1.229 -0.65 1.814 -1.017 c 0.088 -0.055 0.172 -0.116 0.259 -0.172 c 0.521 -0.338 1.026 -0.696 1.511 -1.077 c 0.093 -0.073 0.183 -0.149 0.275 -0.223 c 0.252 -0.205 0.514 -0.398 0.756 -0.614 l -0.031 -0.03 c 0.256 -0.229 0.526 -0.443 0.77 -0.684 c 0.892 -0.883 1.701 -1.844 2.417 -2.871 c 0.716 -1.027 1.34 -2.121 1.862 -3.267 c 0.965 -2.121 1.578 -4.424 1.78 -6.828 l 0.852 -13.016 C 60.391 15.329 58.171 8.984 52.217 11.909 z" style="stroke: none; stroke-width: 1; stroke-dasharray: none; stroke-linecap: butt; stroke-linejoin: miter; stroke-miterlimit: 10; fill: rgb(232,187,137); fill-rule: nonzero; opacity: 1;" transform=" matrix(1 0 0 1 0 0) " stroke-linecap="round" />
	<path d="M 63.028 22.817 C 65.441 5.582 57.03 1 45.232 1 h 0 C 34.98 1 25.445 3.471 26.724 20.048 c 14.705 1.322 26.687 -2.192 32.31 -15.001 C 53.41 15.61 58.128 19.051 63.028 22.817 z" style="stroke: none; stroke-width: 1; stroke-dasharray: none; stroke-linecap: butt; stroke-linejoin: miter; stroke-miterlimit: 10; fill: rgb(72,73,84); fill-rule: nonzero; opacity: 1;" transform=" matrix(1 0 0 1 0 0) " stroke-linecap="round" />
	<path d="M 33.331 46.963 c -1.395 -3.223 -0.371 -10.496 5.649 -11.352 c 4.064 -3.052 8.077 -3.014 12.041 0 c 5.549 0.297 7.044 8.13 5.649 11.352 l 0.001 0.001 c -0.389 0.458 -0.797 0.9 -1.225 1.323 c -2.09 2.068 -4.635 3.704 -7.508 4.742 l 0 0 c -1.898 0.686 -3.975 0.686 -5.873 0 l 0 0 C 38.602 51.778 35.617 49.661 33.331 46.963 L 33.331 46.963 z" style="stroke: none; stroke-width: 1; stroke-dasharray: none; stroke-linecap: butt; stroke-linejoin: miter; stroke-miterlimit: 10; fill: rgb(214,244,252); fill-rule: nonzero; opacity: 1;" transform=" matrix(1 0 0 1 0 0) " stroke-linecap="round" />
	<path d="M 30.966 57.208 c 9.385 9.246 18.741 9.217 28.067 0 l -0.002 0.006 c 0.468 0.183 0.964 0.321 1.482 0.408 l 8.643 1.456 c 4.553 0.767 7.861 4.423 7.861 8.688 v 8.576 l -0.067 0 h -7.873 c -2.894 0 -5.239 2.161 -5.235 4.828 c 0.005 3.426 0.007 7.477 -0.009 7.83 c 0 0 -18.834 0 -18.834 0 H 26.099 c -0.016 -0.352 -0.013 -4.404 -0.009 -7.83 c 0.004 -2.667 -2.341 -4.828 -5.235 -4.828 h -7.873 c 0 0 0 -8.576 0 -8.576 c 0 -4.265 3.308 -7.921 7.861 -8.688 l 8.643 -1.456 c 0.518 -0.087 1.014 -0.225 1.482 -0.408 L 30.966 57.208 z" style="stroke: none; stroke-width: 1; stroke-dasharray: none; stroke-linecap: butt; stroke-linejoin: miter; stroke-miterlimit: 10; fill: rgb(214,244,252); fill-rule: nonzero; opacity: 1;" transform=" matrix(1 0 0 1 0 0) " stroke-linecap="round" />
	<path d="M 42.146 28.303 c -0.156 0 -0.313 -0.036 -0.461 -0.113 c -1.82 -0.949 -3.59 -0.949 -5.41 0 c -0.492 0.255 -1.094 0.064 -1.349 -0.424 c -0.255 -0.49 -0.065 -1.094 0.424 -1.349 c 2.409 -1.256 4.851 -1.256 7.26 0 c 0.49 0.255 0.68 0.859 0.424 1.349 C 42.855 28.107 42.507 28.303 42.146 28.303 z" style="stroke: none; stroke-width: 1; stroke-dasharray: none; stroke-linecap: butt; stroke-linejoin: miter; stroke-miterlimit: 10; fill: rgb(0,0,0); fill-rule: nonzero; opacity: 1;" transform=" matrix(1 0 0 1 0 0) " stroke-linecap="round" />
	<path d="M 54.187 28.303 c -0.155 0 -0.313 -0.036 -0.461 -0.113 c -1.82 -0.949 -3.59 -0.949 -5.41 0 c -0.491 0.257 -1.093 0.065 -1.349 -0.424 c -0.255 -0.49 -0.065 -1.094 0.424 -1.349 c 2.41 -1.256 4.85 -1.256 7.26 0 c 0.489 0.255 0.679 0.859 0.424 1.349 C 54.896 28.107 54.548 28.303 54.187 28.303 z" style="stroke: none; stroke-width: 1; stroke-dasharray: none; stroke-linecap: butt; stroke-linejoin: miter; stroke-miterlimit: 10; fill: rgb(0,0,0); fill-rule: nonzero; opacity: 1;" transform=" matrix(1 0 0 1 0 0) " stroke-linecap="round" />
	<path d="M 69.323 58.092 l -8.644 -1.456 c -2.864 -0.482 -4.942 -2.752 -4.942 -5.419 L 55.696 49.4 c 0.148 -0.138 0.308 -0.259 0.452 -0.402 c 0.439 -0.435 0.857 -0.893 1.258 -1.364 c 0.011 -0.012 0.022 -0.023 0.033 -0.035 c 0.439 -0.518 0.856 -1.055 1.243 -1.61 c 0.75 -1.074 1.406 -2.227 1.951 -3.425 c 1.03 -2.266 1.658 -4.674 1.868 -7.176 l 0.76 -11.615 c 0.048 -0.012 0.098 -0.009 0.144 -0.028 c 0.329 -0.135 0.563 -0.435 0.611 -0.787 c 1.123 -8.016 0.05 -13.775 -3.281 -17.604 C 57.604 1.75 52.533 0 45.232 0 C 40.03 0 33.541 0.559 29.508 4.915 c -3.077 3.324 -4.314 8.299 -3.781 15.21 c 0.036 0.466 0.392 0.833 0.848 0.903 L 27.5 35.405 c 0.381 4.553 2.201 8.769 5.041 12.141 c 0.043 0.058 0.082 0.118 0.135 0.165 c 0.511 0.595 1.056 1.159 1.63 1.696 l -0.044 1.833 c 0 2.645 -2.079 4.914 -4.942 5.396 l -8.643 1.456 c -5.039 0.849 -8.695 4.917 -8.695 9.674 v 18.582 c 0 2.014 1.74 3.652 3.879 3.652 h 58.278 c 2.139 0 3.879 -1.639 3.879 -3.652 V 67.766 C 78.018 63.009 74.361 58.94 69.323 58.092 z M 34.198 46.416 c -0.653 -1.674 -0.596 -4.629 0.651 -6.855 c 0.95 -1.696 2.387 -2.691 4.272 -2.959 l 0.254 -0.036 l 0.206 -0.154 c 3.668 -2.757 7.214 -2.758 10.835 -0.004 l 0.009 0.007 c 0 0 0.001 0.001 0.002 0.001 l 0.235 0.178 l 0.307 0.017 c 1.586 0.085 2.875 0.911 3.831 2.455 c 1.446 2.334 1.671 5.64 0.996 7.371 c -0.338 0.392 -0.685 0.778 -1.052 1.141 c -2.04 2.019 -4.444 3.537 -7.146 4.513 c -1.673 0.605 -3.519 0.605 -5.193 0 C 39.165 50.919 36.364 48.933 34.198 46.416 z M 28.589 21.186 c 12.242 0.753 21.132 -2.079 26.905 -8.631 c -0.357 4.964 2.625 7.707 5.829 10.209 l -0.441 6.744 c -2.522 2.135 -5.775 3.815 -9.684 4.999 c -4.107 -2.917 -8.291 -2.906 -12.445 0.037 c -3.405 -0.688 -6.629 -1.438 -9.588 -4.412 L 28.589 21.186 z M 60.508 35.238 c -0.189 2.255 -0.759 4.441 -1.694 6.497 c -0.212 0.467 -0.452 0.921 -0.701 1.37 c -0.144 -1.709 -0.65 -3.536 -1.615 -5.093 c -0.64 -1.033 -1.42 -1.838 -2.312 -2.408 c 2.458 -0.933 4.637 -2.081 6.522 -3.43 L 60.508 35.238 z M 59.327 6.781 c 2.58 3.057 3.56 7.817 2.919 14.167 c -3.872 -3.058 -6.557 -6.013 -3.382 -13.271 C 59.022 7.383 59.178 7.083 59.327 6.781 z M 30.975 6.273 C 34.482 2.486 40.437 2 45.232 2 c 5.624 0 9.755 1.079 12.55 3.288 c -0.25 0.496 -0.478 0.978 -0.684 1.445 c -5.099 9.412 -14.683 13.479 -29.196 12.405 c -0.075 -0.032 -0.156 -0.044 -0.24 -0.057 C 27.34 13.224 28.426 9.028 30.975 6.273 z M 29.347 32.956 c 2.016 1.549 4.111 2.362 6.207 2.915 c -0.985 0.67 -1.815 1.576 -2.451 2.712 c -0.776 1.387 -1.166 2.929 -1.28 4.397 c -1.281 -2.35 -2.098 -4.969 -2.329 -7.724 L 29.347 32.956 z M 36.262 51.264 l 0.005 -0.211 c 1.647 1.213 3.478 2.203 5.456 2.917 c 1.057 0.382 2.167 0.572 3.276 0.572 c 1.11 0 2.22 -0.19 3.276 -0.572 c 1.975 -0.714 3.791 -1.715 5.456 -2.942 l 0.005 0.211 c 0 2.563 1.394 4.858 3.562 6.214 c -8.251 7.543 -16.321 7.543 -24.597 0 C 34.87 56.099 36.263 53.809 36.262 51.264 z M 21.009 60.064 l 8.643 -1.456 c 0.37 -0.062 0.727 -0.154 1.076 -0.261 c 4.744 4.525 9.515 6.809 14.283 6.809 c 4.768 0 9.532 -2.283 14.262 -6.808 c 0.349 0.106 0.705 0.198 1.075 0.26 l 8.644 1.456 c 4.071 0.686 7.026 3.924 7.026 7.701 v 7.576 h -6.939 c -1.724 0 -3.387 0.675 -4.563 1.853 c -1.081 1.082 -1.675 2.495 -1.673 3.977 c 0.006 3.897 0.004 5.849 0.001 6.829 H 27.09 c -0.003 -0.98 -0.005 -2.932 0 -6.829 c 0.002 -1.482 -0.593 -2.895 -1.674 -3.978 c -1.175 -1.177 -2.838 -1.852 -4.562 -1.852 h -6.873 v -7.576 C 13.982 63.988 16.938 60.75 21.009 60.064 z M 13.982 86.348 v -9.006 h 6.873 c 1.197 0 2.344 0.461 3.146 1.265 c 0.703 0.704 1.09 1.614 1.089 2.563 c -0.005 3.34 -0.005 5.607 0 6.831 h -9.229 C 14.825 88 13.982 87.259 13.982 86.348 z M 74.139 88 h -9.296 c 0.005 -1.224 0.005 -3.492 0 -6.831 c -0.001 -0.948 0.385 -1.857 1.089 -2.562 c 0.803 -0.805 1.949 -1.266 3.146 -1.266 h 6.939 v 9.006 C 76.018 87.259 75.175 88 74.139 88 z" style="stroke: none; stroke-width: 1; stroke-dasharray: none; stroke-linecap: butt; stroke-linejoin: miter; stroke-miterlimit: 10; fill: rgb(0,0,0); fill-rule: nonzero; opacity: 1;" transform=" matrix(1 0 0 1 0 0) " stroke-linecap="round" />
</g>
</svg>